<svg version="1.1" xmlns="http://www.w3.org/2000/svg" viewBox="0 0 241.43425445405683 243.80894801303657" width="482.86850890811365" height="487.61789602607314">
  <!-- svg-source:excalidraw -->
  
  <defs>
    <style class="style-fonts">
      @font-face {
        font-family: "Virgil";
        src: url("https://excalidraw.com/Virgil.woff2");
      }
      @font-face {
        font-family: "Cascadia";
        src: url("https://excalidraw.com/Cascadia.woff2");
      }
    </style>
    
  </defs>
  <rect x="0" y="0" width="241.43425445405683" height="243.80894801303657" fill="#ffffff"></rect><g stroke-linecap="round" transform="translate(10 10) rotate(0 110.71712722702841 111.90447400651829)"><path d="M32 0 L189.43 0 L196.93 0.5 L203.43 2 L208.93 4.5 L213.43 8 L216.93 12.5 L219.43 18 L220.93 24.5 L221.43 32 L221.43 191.81 L220.93 199.31 L219.43 205.81 L216.93 211.31 L213.43 215.81 L208.93 219.31 L203.43 221.81 L196.93 223.31 L189.43 223.81 L32 223.81 L24.5 223.31 L18 221.81 L12.5 219.31 L8 215.81 L4.5 211.31 L2 205.81 L0.5 199.31 L0 191.81 L0.5 24.5 L2 18 L4.5 12.5 L8 8 L12.5 4.5 L18 2 L24.5 0.5 L32 0" stroke="none" stroke-width="0" fill="#172554"></path><path d="M32 0 M32 0 C82.75 0, 133.51 0, 189.43 0 M32 0 C80.98 0, 129.96 0, 189.43 0 M189.43 0 C210.77 0, 221.43 10.67, 221.43 32 M189.43 0 C210.77 0, 221.43 10.67, 221.43 32 M221.43 32 C221.43 84.11, 221.43 136.23, 221.43 191.81 M221.43 32 C221.43 92.81, 221.43 153.62, 221.43 191.81 M221.43 191.81 C221.43 213.14, 210.77 223.81, 189.43 223.81 M221.43 191.81 C221.43 213.14, 210.77 223.81, 189.43 223.81 M189.43 223.81 C131.22 223.81, 73.01 223.81, 32 223.81 M189.43 223.81 C141.24 223.81, 93.05 223.81, 32 223.81 M32 223.81 C10.67 223.81, 0 213.14, 0 191.81 M32 223.81 C10.67 223.81, 0 213.14, 0 191.81 M0 191.81 C0 149.15, 0 106.49, 0 32 M0 191.81 C0 146.72, 0 101.63, 0 32 M0 32 C0 10.67, 10.67 0, 32 0 M0 32 C0 10.67, 10.67 0, 32 0" stroke="#1971c2" stroke-width="1" fill="none"></path></g><g stroke-linecap="round" transform="translate(21.975420415861663 19.9024026277948) rotate(0 99.9060520847056 101.86163220848994)"><path d="M32 0 M32 0 C63.02 2.72, 92.47 -0.08, 167.81 0 M32 0 C77.75 -0.62, 122.7 -2.59, 167.81 0 M167.81 0 C185.4 -3.97, 198.56 13.08, 199.81 32 M167.81 0 C184.7 1.29, 198.89 13.47, 199.81 32 M199.81 32 C197.27 76.89, 199.31 127.48, 199.81 171.72 M199.81 32 C198.13 63.44, 199.27 90.64, 199.81 171.72 M199.81 171.72 C198.75 196.32, 189.92 205.85, 167.81 203.72 M199.81 171.72 C202.42 191.03, 186.64 199.42, 167.81 203.72 M167.81 203.72 C120.87 203.21, 80.58 204.61, 32 203.72 M167.81 203.72 C134.29 200.71, 100.43 202.77, 32 203.72 M32 203.72 C13.09 202.28, -0.64 195.76, 0 171.72 M32 203.72 C11.34 202.75, -4.45 191.84, 0 171.72 M0 171.72 C-1.11 133.8, 6.08 94.37, 0 32 M0 171.72 C1.17 124.66, 0.32 79.33, 0 32 M0 32 C-2.88 10.34, 14.2 -2.7, 32 0 M0 32 C-1.44 11.12, 6.55 -1.86, 32 0" stroke="#60b0f4" stroke-width="4" fill="none"></path></g><g transform="translate(73.84819604054155 20.548331141611925) rotate(0 52.28411865234375 81.2900724033625)"><text x="52.28411865234375" y="0" font-family="Virgil, Segoe UI Emoji" font-size="130.06411584538043px" fill="#4dabf7" text-anchor="middle" style="white-space: pre;" direction="ltr" dominant-baseline="text-before-edge">T</text></g><g transform="translate(75.61330317980628 63.271221538287136) rotate(0 41.87931823730469 81.2900724033625)"><text x="41.87931823730469" y="0" font-family="Virgil, Segoe UI Emoji" font-size="130.06411584538046px" fill="#4dabf7" text-anchor="middle" style="white-space: pre;" direction="ltr" dominant-baseline="text-before-edge">N</text></g></svg>